<?xml version="1.0" standalone="no"?>
<svg xmlns:xlink="http://www.w3.org/1999/xlink" id="wave" style="transform:rotate(180deg); transition: 0.3s" viewBox="0 0 1440 490" version="1.1" xmlns="http://www.w3.org/2000/svg"><defs><linearGradient id="sw-gradient-0" x1="0" x2="0" y1="1" y2="0"><stop stop-color="rgba(243, 106, 62, 1)" offset="0%"/><stop stop-color="rgba(255, 179, 11, 1)" offset="100%"/></linearGradient></defs><path style="transform:translate(0, 0px); opacity:1" fill="url(#sw-gradient-0)" d="M0,98L80,98C160,98,320,98,480,147C640,196,800,294,960,343C1120,392,1280,392,1440,400.2C1600,408,1760,425,1920,367.5C2080,310,2240,180,2400,122.5C2560,65,2720,82,2880,114.3C3040,147,3200,196,3360,179.7C3520,163,3680,82,3840,81.7C4000,82,4160,163,4320,187.8C4480,212,4640,180,4800,204.2C4960,229,5120,310,5280,351.2C5440,392,5600,392,5760,383.8C5920,376,6080,359,6240,351.2C6400,343,6560,343,6720,310.3C6880,278,7040,212,7200,212.3C7360,212,7520,278,7680,326.7C7840,376,8000,408,8160,408.3C8320,408,8480,376,8640,318.5C8800,261,8960,180,9120,147C9280,114,9440,131,9600,114.3C9760,98,9920,49,10080,81.7C10240,114,10400,229,10560,261.3C10720,294,10880,245,11040,236.8C11200,229,11360,261,11440,277.7L11520,294L11520,490L11440,490C11360,490,11200,490,11040,490C10880,490,10720,490,10560,490C10400,490,10240,490,10080,490C9920,490,9760,490,9600,490C9440,490,9280,490,9120,490C8960,490,8800,490,8640,490C8480,490,8320,490,8160,490C8000,490,7840,490,7680,490C7520,490,7360,490,7200,490C7040,490,6880,490,6720,490C6560,490,6400,490,6240,490C6080,490,5920,490,5760,490C5600,490,5440,490,5280,490C5120,490,4960,490,4800,490C4640,490,4480,490,4320,490C4160,490,4000,490,3840,490C3680,490,3520,490,3360,490C3200,490,3040,490,2880,490C2720,490,2560,490,2400,490C2240,490,2080,490,1920,490C1760,490,1600,490,1440,490C1280,490,1120,490,960,490C800,490,640,490,480,490C320,490,160,490,80,490L0,490Z"/><defs><linearGradient id="sw-gradient-1" x1="0" x2="0" y1="1" y2="0"><stop stop-color="rgba(243, 106, 62, 1)" offset="0%"/><stop stop-color="rgba(255, 179, 11, 1)" offset="100%"/></linearGradient></defs><path style="transform:translate(0, 50px); opacity:0.9" fill="url(#sw-gradient-1)" d="M0,147L80,196C160,245,320,343,480,392C640,441,800,441,960,416.5C1120,392,1280,343,1440,269.5C1600,196,1760,98,1920,106.2C2080,114,2240,229,2400,228.7C2560,229,2720,114,2880,122.5C3040,131,3200,261,3360,277.7C3520,294,3680,196,3840,138.8C4000,82,4160,65,4320,49C4480,33,4640,16,4800,24.5C4960,33,5120,65,5280,98C5440,131,5600,163,5760,155.2C5920,147,6080,98,6240,81.7C6400,65,6560,82,6720,89.8C6880,98,7040,98,7200,147C7360,196,7520,294,7680,334.8C7840,376,8000,359,8160,359.3C8320,359,8480,376,8640,343C8800,310,8960,229,9120,228.7C9280,229,9440,310,9600,318.5C9760,327,9920,261,10080,253.2C10240,245,10400,294,10560,318.5C10720,343,10880,343,11040,326.7C11200,310,11360,278,11440,261.3L11520,245L11520,490L11440,490C11360,490,11200,490,11040,490C10880,490,10720,490,10560,490C10400,490,10240,490,10080,490C9920,490,9760,490,9600,490C9440,490,9280,490,9120,490C8960,490,8800,490,8640,490C8480,490,8320,490,8160,490C8000,490,7840,490,7680,490C7520,490,7360,490,7200,490C7040,490,6880,490,6720,490C6560,490,6400,490,6240,490C6080,490,5920,490,5760,490C5600,490,5440,490,5280,490C5120,490,4960,490,4800,490C4640,490,4480,490,4320,490C4160,490,4000,490,3840,490C3680,490,3520,490,3360,490C3200,490,3040,490,2880,490C2720,490,2560,490,2400,490C2240,490,2080,490,1920,490C1760,490,1600,490,1440,490C1280,490,1120,490,960,490C800,490,640,490,480,490C320,490,160,490,80,490L0,490Z"/></svg>