<?xml version="1.0" standalone="no"?>
<svg xmlns:xlink="http://www.w3.org/1999/xlink" id="wave" style="transform:rotate(180deg); transition: 0.3s" viewBox="0 0 1440 370" version="1.1" xmlns="http://www.w3.org/2000/svg"><defs><linearGradient id="sw-gradient-0" x1="0" x2="0" y1="1" y2="0"><stop stop-color="rgba(93.531, 141.516, 120.049, 1)" offset="0%"/><stop stop-color="rgba(103, 141, 124, 1)" offset="100%"/></linearGradient></defs><path style="transform:translate(0, 0px); opacity:1" fill="url(#sw-gradient-0)" d="M0,222L80,228.2C160,234,320,247,480,234.3C640,222,800,185,960,185C1120,185,1280,222,1440,252.8C1600,284,1760,308,1920,320.7C2080,333,2240,333,2400,302.2C2560,271,2720,210,2880,166.5C3040,123,3200,99,3360,111C3520,123,3680,173,3840,185C4000,197,4160,173,4320,148C4480,123,4640,99,4800,129.5C4960,160,5120,247,5280,259C5440,271,5600,210,5760,160.3C5920,111,6080,74,6240,92.5C6400,111,6560,185,6720,215.8C6880,247,7040,234,7200,191.2C7360,148,7520,74,7680,43.2C7840,12,8000,25,8160,49.3C8320,74,8480,111,8640,129.5C8800,148,8960,148,9120,141.8C9280,136,9440,123,9600,148C9760,173,9920,234,10080,246.7C10240,259,10400,222,10560,178.8C10720,136,10880,86,11040,74C11200,62,11360,86,11440,98.7L11520,111L11520,370L11440,370C11360,370,11200,370,11040,370C10880,370,10720,370,10560,370C10400,370,10240,370,10080,370C9920,370,9760,370,9600,370C9440,370,9280,370,9120,370C8960,370,8800,370,8640,370C8480,370,8320,370,8160,370C8000,370,7840,370,7680,370C7520,370,7360,370,7200,370C7040,370,6880,370,6720,370C6560,370,6400,370,6240,370C6080,370,5920,370,5760,370C5600,370,5440,370,5280,370C5120,370,4960,370,4800,370C4640,370,4480,370,4320,370C4160,370,4000,370,3840,370C3680,370,3520,370,3360,370C3200,370,3040,370,2880,370C2720,370,2560,370,2400,370C2240,370,2080,370,1920,370C1760,370,1600,370,1440,370C1280,370,1120,370,960,370C800,370,640,370,480,370C320,370,160,370,80,370L0,370Z"/><defs><linearGradient id="sw-gradient-1" x1="0" x2="0" y1="1" y2="0"><stop stop-color="rgba(162.62, 230.311, 200.028, 1)" offset="0%"/><stop stop-color="rgba(103, 141, 124, 1)" offset="100%"/></linearGradient></defs><path style="transform:translate(0, 50px); opacity:0.9" fill="url(#sw-gradient-1)" d="M0,37L80,67.8C160,99,320,160,480,197.3C640,234,800,247,960,234.3C1120,222,1280,185,1440,141.8C1600,99,1760,49,1920,61.7C2080,74,2240,148,2400,154.2C2560,160,2720,99,2880,111C3040,123,3200,210,3360,234.3C3520,259,3680,222,3840,228.2C4000,234,4160,284,4320,252.8C4480,222,4640,111,4800,92.5C4960,74,5120,148,5280,160.3C5440,173,5600,123,5760,129.5C5920,136,6080,197,6240,185C6400,173,6560,86,6720,67.8C6880,49,7040,99,7200,148C7360,197,7520,247,7680,271.3C7840,296,8000,296,8160,246.7C8320,197,8480,99,8640,67.8C8800,37,8960,74,9120,104.8C9280,136,9440,160,9600,197.3C9760,234,9920,284,10080,259C10240,234,10400,136,10560,98.7C10720,62,10880,86,11040,98.7C11200,111,11360,111,11440,111L11520,111L11520,370L11440,370C11360,370,11200,370,11040,370C10880,370,10720,370,10560,370C10400,370,10240,370,10080,370C9920,370,9760,370,9600,370C9440,370,9280,370,9120,370C8960,370,8800,370,8640,370C8480,370,8320,370,8160,370C8000,370,7840,370,7680,370C7520,370,7360,370,7200,370C7040,370,6880,370,6720,370C6560,370,6400,370,6240,370C6080,370,5920,370,5760,370C5600,370,5440,370,5280,370C5120,370,4960,370,4800,370C4640,370,4480,370,4320,370C4160,370,4000,370,3840,370C3680,370,3520,370,3360,370C3200,370,3040,370,2880,370C2720,370,2560,370,2400,370C2240,370,2080,370,1920,370C1760,370,1600,370,1440,370C1280,370,1120,370,960,370C800,370,640,370,480,370C320,370,160,370,80,370L0,370Z"/></svg>