<?xml version="1.0" standalone="no"?>
<svg xmlns:xlink="http://www.w3.org/1999/xlink" id="wave" style="transform:rotate(180deg); transition: 0.3s" viewBox="0 0 1440 490" version="1.1" xmlns="http://www.w3.org/2000/svg"><defs><linearGradient id="sw-gradient-0" x1="0" x2="0" y1="1" y2="0"><stop stop-color="rgba(93.531, 141.516, 120.049, 1)" offset="0%"/><stop stop-color="rgba(103, 141, 124, 1)" offset="100%"/></linearGradient></defs><path style="transform:translate(0, 0px); opacity:1" fill="url(#sw-gradient-0)" d="M0,294L80,302.2C160,310,320,327,480,310.3C640,294,800,245,960,245C1120,245,1280,294,1440,334.8C1600,376,1760,408,1920,424.7C2080,441,2240,441,2400,400.2C2560,359,2720,278,2880,220.5C3040,163,3200,131,3360,147C3520,163,3680,229,3840,245C4000,261,4160,229,4320,196C4480,163,4640,131,4800,171.5C4960,212,5120,327,5280,343C5440,359,5600,278,5760,212.3C5920,147,6080,98,6240,122.5C6400,147,6560,245,6720,285.8C6880,327,7040,310,7200,253.2C7360,196,7520,98,7680,57.2C7840,16,8000,33,8160,65.3C8320,98,8480,147,8640,171.5C8800,196,8960,196,9120,187.8C9280,180,9440,163,9600,196C9760,229,9920,310,10080,326.7C10240,343,10400,294,10560,236.8C10720,180,10880,114,11040,98C11200,82,11360,114,11440,130.7L11520,147L11520,490L11440,490C11360,490,11200,490,11040,490C10880,490,10720,490,10560,490C10400,490,10240,490,10080,490C9920,490,9760,490,9600,490C9440,490,9280,490,9120,490C8960,490,8800,490,8640,490C8480,490,8320,490,8160,490C8000,490,7840,490,7680,490C7520,490,7360,490,7200,490C7040,490,6880,490,6720,490C6560,490,6400,490,6240,490C6080,490,5920,490,5760,490C5600,490,5440,490,5280,490C5120,490,4960,490,4800,490C4640,490,4480,490,4320,490C4160,490,4000,490,3840,490C3680,490,3520,490,3360,490C3200,490,3040,490,2880,490C2720,490,2560,490,2400,490C2240,490,2080,490,1920,490C1760,490,1600,490,1440,490C1280,490,1120,490,960,490C800,490,640,490,480,490C320,490,160,490,80,490L0,490Z"/><defs><linearGradient id="sw-gradient-1" x1="0" x2="0" y1="1" y2="0"><stop stop-color="rgba(162.62, 230.311, 200.028, 1)" offset="0%"/><stop stop-color="rgba(103, 141, 124, 1)" offset="100%"/></linearGradient></defs><path style="transform:translate(0, 50px); opacity:0.9" fill="url(#sw-gradient-1)" d="M0,49L80,89.8C160,131,320,212,480,261.3C640,310,800,327,960,310.3C1120,294,1280,245,1440,187.8C1600,131,1760,65,1920,81.7C2080,98,2240,196,2400,204.2C2560,212,2720,131,2880,147C3040,163,3200,278,3360,310.3C3520,343,3680,294,3840,302.2C4000,310,4160,376,4320,334.8C4480,294,4640,147,4800,122.5C4960,98,5120,196,5280,212.3C5440,229,5600,163,5760,171.5C5920,180,6080,261,6240,245C6400,229,6560,114,6720,89.8C6880,65,7040,131,7200,196C7360,261,7520,327,7680,359.3C7840,392,8000,392,8160,326.7C8320,261,8480,131,8640,89.8C8800,49,8960,98,9120,138.8C9280,180,9440,212,9600,261.3C9760,310,9920,376,10080,343C10240,310,10400,180,10560,130.7C10720,82,10880,114,11040,130.7C11200,147,11360,147,11440,147L11520,147L11520,490L11440,490C11360,490,11200,490,11040,490C10880,490,10720,490,10560,490C10400,490,10240,490,10080,490C9920,490,9760,490,9600,490C9440,490,9280,490,9120,490C8960,490,8800,490,8640,490C8480,490,8320,490,8160,490C8000,490,7840,490,7680,490C7520,490,7360,490,7200,490C7040,490,6880,490,6720,490C6560,490,6400,490,6240,490C6080,490,5920,490,5760,490C5600,490,5440,490,5280,490C5120,490,4960,490,4800,490C4640,490,4480,490,4320,490C4160,490,4000,490,3840,490C3680,490,3520,490,3360,490C3200,490,3040,490,2880,490C2720,490,2560,490,2400,490C2240,490,2080,490,1920,490C1760,490,1600,490,1440,490C1280,490,1120,490,960,490C800,490,640,490,480,490C320,490,160,490,80,490L0,490Z"/></svg>